<svg width="48" height="48" viewBox="0 0 48 48" xmlns="http://www.w3.org/2000/svg">
  <!-- 背景圆形 -->
  <circle cx="24" cy="24" r="22" fill="url(#gradient1)" stroke="#2563eb" stroke-width="2"/>
  
  <!-- 渐变定义 -->
  <defs>
    <linearGradient id="gradient1" x1="0%" y1="0%" x2="100%" y2="100%">
      <stop offset="0%" style="stop-color:#667eea;stop-opacity:1" />
      <stop offset="100%" style="stop-color:#764ba2;stop-opacity:1" />
    </linearGradient>
    <linearGradient id="gradient2" x1="0%" y1="0%" x2="100%" y2="100%">
      <stop offset="0%" style="stop-color:#10b981;stop-opacity:1" />
      <stop offset="100%" style="stop-color:#059669;stop-opacity:1" />
    </linearGradient>
  </defs>
  
  <!-- 磁铁主体 -->
  <rect x="11" y="13" width="26" height="7" rx="3" fill="#e5e7eb" stroke="#374151" stroke-width="1"/>
  <rect x="11" y="28" width="26" height="7" rx="3" fill="#e5e7eb" stroke="#374151" stroke-width="1"/>
  
  <!-- 磁铁极性 -->
  <rect x="11" y="13" width="11" height="7" rx="3" fill="#dc2626"/>
  <rect x="26" y="13" width="11" height="7" rx="3" fill="#2563eb"/>
  <rect x="11" y="28" width="11" height="7" rx="3" fill="#2563eb"/>
  <rect x="26" y="28" width="11" height="7" rx="3" fill="#dc2626"/>
  
  <!-- N S 标记 -->
  <text x="16.5" y="18" font-family="Arial" font-size="6" font-weight="bold" fill="white" text-anchor="middle">N</text>
  <text x="31.5" y="18" font-family="Arial" font-size="6" font-weight="bold" fill="white" text-anchor="middle">S</text>
  <text x="16.5" y="33" font-family="Arial" font-size="6" font-weight="bold" fill="white" text-anchor="middle">S</text>
  <text x="31.5" y="33" font-family="Arial" font-size="6" font-weight="bold" fill="white" text-anchor="middle">N</text>
  
  <!-- 磁力线 -->
  <path d="M 7 16 Q 5 24 7 32" stroke="#374151" stroke-width="1.5" fill="none"/>
  <path d="M 41 16 Q 43 24 41 32" stroke="#374151" stroke-width="1.5" fill="none"/>
  
  <!-- 收藏符号 -->
  <path d="M 20 22 L 20 26 L 24 24 L 28 26 L 28 22 Z" fill="url(#gradient2)" stroke="#047857" stroke-width="1"/>
  
  <!-- 快速标识 -->
  <!-- <path d="M 28 8 L 26 13 L 29 13 L 27 18 L 30 13 L 26 13 Z" fill="#fbbf24" stroke="#f59e0b" stroke-width="0.5"/> -->
</svg>